HIERARCHY
ROOT Hips
{
	OFFSET 0.00 0.00 0.00
	CHANNELS 6 Xposition Yposition Zposition Xrotation Yrotation Zrotation
	JOINT Spine
	{
		OFFSET 0.00000 5.19526 0.00000
		CHANNELS 3 Xrotation Yrotation Zrotation
		JOINT Head
		{
			OFFSET 0.00000 15.65388 0.00000
			CHANNELS 3 Xrotation Yrotation Zrotation
			End Site
			{
				OFFSET 0.00000 4.52755 0.00000
			}
		}
		JOINT LeftShoulder
		{
			OFFSET 0.00000 10.32977 0.00000
			CHANNELS 3 Xrotation Yrotation Zrotation
			JOINT LeftArm
			{
				OFFSET 6.99601 0.00000 0.00000
				CHANNELS 3 Xrotation Yrotation Zrotation
				JOINT LeftForeArm
				{
					OFFSET 10.20930 0.00000 0.00000
					CHANNELS 3 Yrotation Zrotation Xrotation
					JOINT LeftHand
					{
						OFFSET 8.56316 0.00000 0.00000
						CHANNELS 3 Xrotation Yrotation Zrotation
						JOINT LeftHandThumb1
						{
							OFFSET 0.00000 0.00000 0.00000
							CHANNELS 3 Xrotation Zrotation Yrotation
							End Site
							{
								OFFSET 0.00000 0.00000 3.93700
							}
						}
						End Site
						{
							OFFSET 3.93700 0.00000 0.00000
						}
					}
				}
			}
		}
		JOINT RightShoulder
		{
			OFFSET 0.00000 10.32977 0.00000
			CHANNELS 3 Xrotation Yrotation Zrotation
			JOINT RightArm
			{
				OFFSET -6.99601 0.00000 0.00000
				CHANNELS 3 Xrotation Yrotation Zrotation
				JOINT RightForeArm
				{
					OFFSET -10.20930 0.00000 0.00000
					CHANNELS 3 Yrotation Zrotation Xrotation
					JOINT RightHand
					{
						OFFSET -8.56316 0.00000 0.00000
						CHANNELS 3 Xrotation Yrotation Zrotation
						JOINT RightHandThumb1
						{
							OFFSET 0.00000 0.00000 0.00000
							CHANNELS 3 Xrotation Zrotation Yrotation
							End Site
							{
								OFFSET 0.00000 0.00000 3.93700
							}
						}
						End Site
						{
							OFFSET -3.93700 0.00000 0.00000
						}
					}
				}
			}
		}
	}
	JOINT LeftUpLeg
	{
		OFFSET 3.35136 0.00000 0.00000
		CHANNELS 3 Xrotation Yrotation Zrotation
		JOINT LeftLeg
		{
			OFFSET 0.00000 -16.34683 0.00000
			CHANNELS 3 Xrotation Yrotation Zrotation
			JOINT LeftFoot
			{
				OFFSET 0.00000 -13.95979 0.00000
				CHANNELS 3 Xrotation Yrotation Zrotation
				JOINT LeftToeBase
				{
					OFFSET 0.00000 -1.33694 4.98954
					CHANNELS 3 Xrotation Yrotation Zrotation
					End Site
					{
						OFFSET 0.00000 0.00000 2.95275
					}
				}
			}
		}
	}
	JOINT RightUpLeg
	{
		OFFSET -3.35136 0.00000 0.00000
		CHANNELS 3 Xrotation Yrotation Zrotation
		JOINT RightLeg
		{
			OFFSET 0.00000 -16.34683 0.00000
			CHANNELS 3 Xrotation Yrotation Zrotation
			JOINT RightFoot
			{
				OFFSET 0.00000 -13.95979 0.00000
				CHANNELS 3 Xrotation Yrotation Zrotation
				JOINT RightToeBase
				{
					OFFSET 0.00000 -1.33694 4.98954
					CHANNELS 3 Xrotation Yrotation Zrotation
					End Site
					{
						OFFSET 0.00000 0.00000 2.95275
					}
				}
			}
		}
	}
}
MOTION
Frames:	16
Frame Time: 0.008333
2.0466 31.9989 -5.6616 3.2038 -0.6805 10.4773 1.8570 11.8379 -4.0861 25.9755 14.2205 -14.4716 3.1907 15.0829 7.7768 -0.8104 -28.1482 -83.4010 -18.6220 0.0000 20.8779 2.6358 14.2419 -10.5990 32.8623 0.0000 24.3270 11.7609 -18.5037 -15.2250 -17.3114 -32.2555 69.7338 99.2325 0.0000 2.2724 -7.3154 -12.1358 -31.4102 33.1476 -0.0000 -26.2537 -36.7680 -10.6872 3.4307 93.7655 -0.0000 -0.0000 -17.5930 25.5858 -14.5065 6.3842 -0.0000 -0.0000 -9.6281 -3.4365 -1.4653 20.8848 -0.0000 -0.0000 -25.1320 -29.0152 -2.0455 10.2327 -0.0000 -0.0000
2.0386 31.9905 -5.6609 3.0994 -0.3845 10.4016 1.8814 11.6695 -3.9930 25.9276 14.1361 -14.4748 3.1185 15.0221 7.7882 -0.8010 -28.1929 -83.4358 -18.6799 -0.0000 20.9896 2.6402 14.2229 -10.6299 32.8623 0.0000 24.3270 11.8041 -18.5570 -15.1859 -17.2978 -32.3510 69.6757 99.3090 0.0000 2.2106 -7.3103 -12.1250 -31.4145 33.1476 -0.0000 -26.2537 -36.8773 -10.1771 3.5445 93.4442 -0.0000 -0.0000 -17.5651 25.3399 -14.4185 6.3079 -0.0000 -0.0000 -9.5314 -3.5956 -1.3927 20.8847 -0.0000 -0.0000 -25.2351 -29.1723 -2.0944 10.2834 -0.0000 -0.0000
2.0299 31.9817 -5.6591 3.0079 -0.1072 10.3198 1.8856 11.5287 -3.8947 25.8953 14.0462 -14.4622 3.0559 14.9531 7.8032 -0.7660 -28.2545 -83.4658 -18.7563 0.0000 21.0586 2.6296 14.2373 -10.5778 32.8623 0.0000 24.3270 11.8803 -18.6167 -15.1374 -17.3009 -32.4620 69.6370 99.3983 0.0000 2.1633 -7.2953 -12.1116 -31.3894 33.1476 -0.0000 -26.2537 -36.9904 -9.6678 3.6690 93.1587 -0.0000 -0.0000 -17.5957 25.1659 -14.4468 6.5460 -0.0000 -0.0000 -9.4396 -3.6890 -1.3054 20.8758 -0.0000 -0.0000 -25.3346 -29.3442 -2.2244 10.2693 -0.0000 -0.0000
2.0215 31.9725 -5.6567 2.9100 0.1962 10.2245 1.8883 11.3576 -3.7715 25.8493 13.9435 -14.4692 3.0252 14.9116 7.8042 -0.7467 -28.4353 -83.4992 -18.8106 -0.0000 21.2398 2.5784 14.2513 -10.3665 32.8623 0.0000 24.3270 11.9212 -18.6567 -15.1139 -17.2723 -32.6059 69.6177 99.4984 0.0000 2.1177 -7.2691 -12.0962 -31.3287 33.1476 -0.0000 -26.2537 -37.1247 -9.1150 3.8265 92.9015 -0.0000 -0.0000 -17.6659 25.0246 -14.3929 6.3243 -0.0000 -0.0000 -9.3389 -3.8334 -1.2057 20.8502 -0.0000 -0.0000 -25.4175 -29.5185 -2.3694 10.2229 -0.0000 -0.0000
2.0143 31.9643 -5.6536 2.8242 0.4852 10.1539 1.8813 11.1696 -3.6725 25.8117 13.8851 -14.5027 3.0160 14.9262 7.7848 -0.7295 -28.5730 -83.4997 -18.9107 0.0000 21.2340 2.5888 14.2950 -10.3770 32.8623 0.0000 24.3270 11.9220 -18.6725 -15.1052 -17.2008 -32.6923 69.6164 99.6003 0.0000 2.2082 -7.3148 -12.1408 -31.3980 33.1476 -0.0000 -26.2537 -37.2738 -8.4627 3.9776 92.6481 -0.0000 -0.0000 -17.7836 25.0709 -14.3866 6.0651 -0.0000 -0.0000 -9.2567 -3.9400 -1.1336 20.8471 -0.0000 -0.0000 -25.4932 -29.6589 -2.5400 10.1021 -0.0000 -0.0000
2.0073 31.9567 -5.6508 2.7384 0.7720 10.0896 1.8772 11.0205 -3.5864 25.7701 13.8002 -14.5034 3.0013 14.8744 7.7720 -0.6968 -28.6444 -83.5049 -19.0015 0.0000 21.2279 2.5932 14.2731 -10.4094 32.8623 0.0000 24.3270 11.9295 -18.7112 -15.0840 -17.1416 -32.8638 69.6226 99.7090 0.0000 2.0286 -7.1935 -12.0603 -31.1349 33.1476 -0.0000 -26.2537 -37.4395 -7.7146 4.1485 92.4245 -0.0000 -0.0000 -17.8550 25.3415 -14.2256 6.2776 -0.0000 -0.0000 -9.1684 -4.0378 -1.0590 20.8316 -0.0000 -0.0000 -25.5753 -29.8459 -2.6798 10.0758 -0.0000 -0.0000
1.9984 31.9488 -5.6457 2.6442 1.0485 9.9953 1.8729 10.8648 -3.4676 25.7354 13.7365 -14.4911 2.9756 14.8154 7.7549 -0.6126 -28.6276 -83.5041 -19.1340 0.0000 21.2483 2.6153 14.2835 -10.4891 32.8623 0.0000 24.3270 11.9352 -18.7507 -15.0662 -17.0853 -32.9500 69.6460 99.8001 0.0000 2.1181 -7.2326 -12.1035 -31.1845 33.1476 -0.0000 -26.2537 -37.6120 -6.8742 4.3839 92.2310 -0.0000 -0.0000 -17.9532 25.6920 -13.9418 6.0040 -0.0000 -0.0000 -9.0571 -4.1634 -0.9549 20.7867 -0.0000 -0.0000 -25.6801 -29.9671 -3.0347 10.1586 -0.0000 -0.0000
1.9894 31.9409 -5.6430 2.5890 1.3063 9.9050 1.8367 10.7214 -3.3509 25.6834 13.6908 -14.4971 2.9966 14.7950 7.7206 -0.5748 -28.5917 -83.5086 -19.2737 0.0000 21.3343 2.6160 14.2886 -10.4880 32.8623 0.0000 24.3270 11.9626 -18.8129 -15.0424 -17.0790 -33.0373 69.6906 99.8925 0.0000 2.1272 -7.2008 -12.0981 -31.0827 33.1476 -0.0000 -26.2537 -37.8377 -5.9318 4.6793 92.0616 -0.0000 -0.0000 -18.0404 26.0769 -13.8858 6.0636 -0.0000 -0.0000 -8.9769 -4.2558 -0.8470 20.7261 -0.0000 -0.0000 -25.7385 -30.1279 -3.1891 10.0573 -0.0000 -0.0000
1.9801 31.9341 -5.6409 2.5427 1.5237 9.8232 1.8062 10.6114 -3.2509 25.6228 13.6567 -14.4990 3.0494 14.7820 7.6867 -0.5718 -28.6600 -83.5299 -19.3605 0.0000 21.5818 2.5670 14.3682 -10.2411 32.8623 0.0000 24.3270 11.9665 -18.8511 -15.0209 -17.0387 -33.1044 69.7377 100.0163 -0.0000 2.1554 -7.2883 -12.2083 -31.1656 33.1476 -0.0000 -26.2537 -38.0650 -4.8890 5.0161 91.8545 -0.0000 -0.0000 -18.1020 26.4205 -13.4341 5.6462 -0.0000 -0.0000 -8.9056 -4.3538 -0.7484 20.6665 -0.0000 -0.0000 -25.7890 -30.2471 -3.3119 10.0182 -0.0000 -0.0000
1.9732 31.9284 -5.6386 2.5024 1.7124 9.7608 1.7874 10.5345 -3.1690 25.5366 13.6300 -14.4992 2.8927 14.7360 7.6787 -0.3322 -28.6018 -83.5097 -19.5152 0.0000 21.7560 2.5842 14.3700 -10.3070 32.8623 0.0000 24.3270 11.9638 -18.9091 -15.0076 -17.0017 -33.2058 69.8359 100.1107 0.0000 2.2060 -7.2238 -12.1644 -31.0279 33.1476 -0.0000 -26.2537 -38.3137 -3.7173 5.3701 91.6562 -0.0000 -0.0000 -18.1193 26.7700 -13.1093 5.4917 -0.0000 -0.0000 -8.8320 -4.4587 -0.6757 20.5866 -0.0000 -0.0000 -25.8222 -30.3226 -3.4632 10.0115 -0.0000 -0.0000
1.9664 31.9242 -5.6351 2.4778 1.8677 9.6969 1.7472 10.4805 -3.0832 25.4764 13.6036 -14.5151 2.9271 14.7103 7.6330 -0.2637 -28.5188 -83.5103 -19.6504 0.0000 21.9191 2.5685 14.3278 -10.2745 32.8623 0.0000 24.3270 11.9620 -18.9563 -14.9817 -16.9562 -33.2520 69.9045 100.2157 0.0000 2.2132 -7.1630 -12.0866 -30.9716 33.1476 -0.0000 -26.2537 -38.5845 -2.5053 5.7456 91.4759 -0.0000 -0.0000 -18.0721 27.0332 -12.8498 5.5415 -0.0000 -0.0000 -8.7589 -4.5471 -0.5988 20.4824 -0.0000 -0.0000 -25.8483 -30.3747 -3.6099 10.0302 -0.0000 -0.0000
1.9594 31.9210 -5.6337 2.4758 1.9796 9.6546 1.7053 10.4541 -3.0324 25.3927 13.5850 -14.5158 2.9772 14.6910 7.5917 -0.2021 -28.4747 -83.5013 -19.7955 -0.0000 22.0449 2.5561 14.3700 -10.1972 32.8623 0.0000 24.3270 11.9981 -18.9896 -14.9363 -16.9425 -33.3041 69.9832 100.3408 0.0000 2.3058 -7.1444 -12.1160 -30.8449 33.1476 -0.0000 -26.2537 -38.8616 -1.1635 6.2191 91.2592 -0.0000 -0.0000 -17.9778 27.1170 -12.9123 5.5123 -0.0000 -0.0000 -8.7056 -4.5357 -0.5278 20.3715 -0.0000 -0.0000 -25.8887 -30.4951 -3.7819 10.0739 -0.0000 -0.0000
1.9495 31.9166 -5.6295 2.4663 2.0551 9.5845 1.6708 10.4631 -2.9555 25.3003 13.5853 -14.5128 2.9833 14.6546 7.5754 -0.0878 -28.4143 -83.5026 -19.9420 0.0000 22.2017 2.5504 14.3834 -10.1656 32.8623 0.0000 24.3270 11.9794 -18.9989 -14.9212 -16.8454 -33.3368 70.0607 100.4638 0.0000 2.3790 -7.1551 -12.1253 -30.8641 33.1476 -0.0000 -26.2537 -39.1391 0.1546 6.7134 91.0582 -0.0000 -0.0000 -17.7749 27.2105 -13.0166 5.2766 -0.0000 -0.0000 -8.6379 -4.5959 -0.4344 20.2668 -0.0000 -0.0000 -25.8904 -30.5223 -3.8802 9.9717 -0.0000 -0.0000
1.9410 31.9128 -5.6279 2.4700 2.1036 9.5362 1.6400 10.4706 -2.9017 25.1861 13.6006 -14.5213 3.0415 14.6589 7.5483 -0.0448 -28.3761 -83.5076 -20.0734 -0.0000 22.3098 2.5594 14.3899 -10.1965 32.8623 0.0000 24.3270 11.9901 -18.9850 -14.9138 -16.7579 -33.3547 70.1589 100.6018 -0.0000 2.5081 -7.2084 -12.1651 -30.9718 33.1476 -0.0000 -26.2537 -39.4507 1.5357 7.2223 90.8500 -0.0000 -0.0000 -17.5440 27.2157 -13.2537 5.2414 -0.0000 -0.0000 -8.5957 -4.6231 -0.3634 20.1943 -0.0000 -0.0000 -25.8639 -30.5928 -3.6992 9.8982 -0.0000 -0.0000
1.9311 31.9093 -5.6242 2.4547 2.1233 9.4774 1.6355 10.5094 -2.8380 25.0670 13.6175 -14.5265 3.0767 14.6374 7.5297 0.0331 -28.3645 -83.5081 -20.1960 0.0000 22.3865 2.5434 14.3722 -10.1458 32.8623 0.0000 24.3270 12.0087 -18.9699 -14.9166 -16.6387 -33.3892 70.2779 100.7565 0.0000 2.5371 -7.1937 -12.1670 -30.9157 33.1476 -0.0000 -26.2537 -39.7224 2.9895 7.8273 90.6123 -0.0000 -0.0000 -17.4360 27.0693 -13.4324 5.2878 -0.0000 -0.0000 -8.5331 -4.6837 -0.2881 20.1113 -0.0000 -0.0000 -25.9239 -30.5236 -3.9620 10.0232 -0.0000 -0.0000
1.9178 31.9051 -5.6213 2.4541 2.1275 9.3933 1.6175 10.5501 -2.7563 24.9450 13.6629 -14.5305 3.1363 14.6623 7.5203 0.0473 -28.3988 -83.5259 -20.2699 -0.0000 22.5799 2.6199 14.3110 -10.4875 32.8623 0.0000 24.3270 12.0215 -18.9364 -14.9234 -16.4962 -33.4409 70.3845 100.9296 0.0000 2.3520 -7.0611 -12.0583 -30.6650 33.1476 -0.0000 -26.2537 -40.0613 4.4701 8.4828 90.4046 -0.0000 -0.0000 -17.3151 26.9443 -13.8833 5.4521 -0.0000 -0.0000 -8.4973 -4.7734 -0.1887 20.0713 -0.0000 -0.0000 -25.8572 -30.5073 -3.6892 9.9301 -0.0000 -0.0000
